<svg xmlns="http://www.w3.org/2000/svg" xmlns:xlink="http://www.w3.org/1999/xlink" width="500" zoomAndPan="magnify" viewBox="0 0 375 374.999991" height="500" preserveAspectRatio="xMidYMid meet" version="1.0"><defs><clipPath id="e202b1caa6"><path d="M 24 37.5 L 351 37.5 L 351 344.21875 L 24 344.21875 Z M 24 37.5 " clip-rule="nonzero"/></clipPath></defs><g clip-path="url(#e202b1caa6)"><path fill="#000000" d="M 347.386719 73.824219 C 336.5625 62.933594 325.664062 52.046875 314.839844 41.15625 C 315.128906 41.441406 315.414062 41.730469 315.628906 42.015625 C 313.40625 39.222656 309.964844 37.644531 306.453125 37.644531 L 90.890625 37.644531 C 85.230469 37.644531 80.28125 41.660156 79.136719 47.246094 L 67.808594 103.339844 C 67.09375 106.847656 68.023438 110.429688 70.246094 113.226562 C 70.535156 113.582031 70.820312 113.871094 71.105469 114.15625 C 71.105469 114.15625 71.035156 114.15625 71.035156 114.085938 C 81.859375 124.972656 92.757812 135.863281 103.582031 146.753906 C 103.867188 147.039062 104.226562 147.324219 104.585938 147.613281 C 104.726562 147.683594 104.800781 147.753906 104.941406 147.828125 C 105.15625 148.042969 105.445312 148.183594 105.660156 148.328125 C 105.730469 148.328125 105.730469 148.398438 105.804688 148.398438 C 105.945312 148.472656 106.019531 148.542969 106.160156 148.613281 C 106.304688 148.6875 106.375 148.757812 106.519531 148.828125 C 106.734375 148.902344 106.949219 149.042969 107.164062 149.117188 C 107.308594 149.1875 107.378906 149.257812 107.523438 149.257812 C 107.738281 149.332031 108.027344 149.472656 108.242188 149.546875 C 108.3125 149.546875 108.457031 149.617188 108.527344 149.617188 C 108.886719 149.6875 109.246094 149.832031 109.53125 149.902344 C 109.746094 149.976562 110.03125 149.976562 110.320312 150.046875 C 110.460938 150.046875 110.605469 150.117188 110.75 150.117188 C 111.109375 150.191406 111.539062 150.191406 111.96875 150.191406 L 136.699219 150.191406 L 36.914062 246.832031 C 35.191406 248.480469 33.972656 250.699219 33.472656 252.992188 L 24.296875 297.265625 C 23.578125 300.773438 24.4375 304.355469 26.734375 307.152344 C 27.019531 307.507812 27.308594 307.796875 27.59375 308.082031 C 27.59375 308.082031 27.59375 308.082031 27.523438 308.011719 C 38.347656 318.898438 49.242188 329.789062 60.066406 340.679688 C 60.355469 340.964844 60.710938 341.25 61.070312 341.539062 C 61.144531 341.609375 61.285156 341.679688 61.429688 341.753906 C 61.644531 341.96875 61.929688 342.109375 62.144531 342.253906 C 62.21875 342.253906 62.21875 342.324219 62.289062 342.324219 C 62.433594 342.398438 62.503906 342.46875 62.648438 342.539062 C 62.792969 342.613281 62.933594 342.683594 63.007812 342.753906 C 63.222656 342.828125 63.4375 342.96875 63.652344 343.042969 C 63.796875 343.113281 63.867188 343.183594 64.011719 343.183594 C 64.226562 343.257812 64.511719 343.398438 64.796875 343.472656 C 64.871094 343.472656 64.941406 343.542969 65.085938 343.542969 C 65.445312 343.613281 65.800781 343.757812 66.089844 343.828125 C 66.304688 343.902344 66.519531 343.902344 66.734375 343.902344 C 66.878906 343.902344 67.09375 343.972656 67.234375 343.972656 C 67.59375 344.042969 68.023438 344.042969 68.453125 344.042969 L 292.546875 344.042969 C 298.210938 344.042969 303.085938 340.105469 304.304688 334.515625 L 315.988281 278.425781 C 316.703125 274.914062 315.84375 271.261719 313.550781 268.539062 C 313.261719 268.25 313.046875 267.894531 312.761719 267.679688 C 301.9375 256.789062 291.039062 245.898438 280.214844 235.011719 C 280.503906 235.296875 280.789062 235.582031 281.003906 235.871094 C 278.78125 233.078125 275.339844 231.5 271.828125 231.5 L 238.136719 231.5 L 337.996094 135.074219 C 339.714844 133.425781 340.933594 131.277344 341.4375 128.914062 L 350.613281 84.640625 C 351.328125 81.132812 350.46875 77.476562 348.175781 74.753906 C 347.886719 74.398438 347.671875 74.109375 347.386719 73.824219 Z M 272.257812 239.308594 C 273.335938 239.308594 274.335938 239.8125 275.054688 240.597656 C 275.773438 241.457031 275.988281 242.53125 275.773438 243.609375 L 264.300781 299.84375 C 263.941406 301.492188 262.507812 302.710938 260.789062 302.710938 L 36.195312 302.710938 C 35.121094 302.710938 34.117188 302.207031 33.398438 301.417969 C 32.683594 300.558594 32.46875 299.484375 32.683594 298.410156 L 41.644531 253.996094 C 41.789062 253.277344 42.144531 252.632812 42.648438 252.132812 L 147.523438 150.261719 L 175.699219 122.824219 L 190.679688 108.28125 L 78.847656 108.28125 C 77.773438 108.28125 76.769531 107.78125 76.054688 106.992188 C 75.335938 106.203125 75.121094 105.058594 75.335938 104.054688 L 86.375 47.746094 C 86.734375 46.101562 88.167969 44.882812 89.890625 44.882812 L 305.953125 44.882812 C 307.027344 44.882812 308.03125 45.382812 308.746094 46.171875 C 309.390625 47.03125 309.679688 48.105469 309.464844 49.179688 L 300.503906 93.597656 C 300.359375 94.3125 300 94.957031 299.5 95.457031 L 151.394531 239.308594 Z M 272.257812 239.308594 " fill-opacity="1" fill-rule="nonzero"/></g><path fill="#ffffff" d="M 305.953125 44.882812 L 89.890625 44.882812 C 88.167969 44.882812 86.734375 46.101562 86.375 47.746094 L 75.265625 103.984375 C 75.050781 105.058594 75.335938 106.132812 75.980469 106.921875 C 76.625 107.710938 77.703125 108.210938 78.777344 108.210938 L 190.679688 108.210938 L 175.699219 122.753906 L 147.523438 150.191406 L 42.648438 252.132812 C 42.144531 252.632812 41.789062 253.277344 41.644531 253.996094 L 32.683594 298.410156 C 32.46875 299.484375 32.753906 300.558594 33.398438 301.417969 C 34.046875 302.28125 35.121094 302.710938 36.195312 302.710938 L 260.859375 302.710938 C 262.582031 302.710938 264.015625 301.492188 264.375 299.84375 L 275.84375 243.609375 C 276.058594 242.53125 275.773438 241.457031 275.125 240.597656 C 274.480469 239.738281 273.40625 239.308594 272.332031 239.308594 L 151.46875 239.308594 L 299.570312 95.457031 C 300.074219 94.957031 300.433594 94.3125 300.574219 93.597656 L 309.535156 49.179688 C 309.75 48.105469 309.464844 47.03125 308.820312 46.171875 C 308.03125 45.382812 307.027344 44.882812 305.953125 44.882812 Z M 305.953125 44.882812 " fill-opacity="1" fill-rule="nonzero"/><path fill="#000000" d="M 90.320312 86.933594 C 90.105469 86.933594 89.816406 86.933594 89.601562 86.863281 C 87.667969 86.503906 86.375 84.570312 86.804688 82.636719 L 92.328125 54.695312 C 92.683594 53.046875 94.117188 51.832031 95.839844 51.832031 L 147.09375 51.832031 C 149.101562 51.832031 150.679688 53.40625 150.679688 55.414062 C 150.679688 57.417969 149.101562 58.996094 147.09375 58.996094 L 98.777344 58.996094 L 93.832031 84.066406 C 93.472656 85.714844 91.96875 86.933594 90.320312 86.933594 Z M 90.320312 86.933594 " fill-opacity="1" fill-rule="nonzero"/></svg>